<svg xmlns="http://www.w3.org/2000/svg" width="18" height="18" viewBox="0 0 18 18" fill="none">
    <path
        d="M2.85844 7.6747L5.86091 7.0662C6.06884 7.02406 6.2492 6.89582 6.35729 6.71326L8.35465 3.33994C8.64508 2.84943 9.35493 2.84943 9.64537 3.33994L11.6427 6.71326C11.7508 6.89582 11.9312 7.02406 12.1391 7.0662L15.1416 7.6747C15.7256 7.79306 15.945 8.51241 15.5264 8.93656L13.0289 11.4674C12.8544 11.6442 12.7788 11.8958 12.8269 12.1395L13.3895 14.9902C13.5106 15.6035 12.8723 16.087 12.3147 15.8045L9.33898 14.2968C9.1259 14.1888 8.87412 14.1888 8.66103 14.2968L5.68527 15.8045C5.12768 16.087 4.48946 15.6035 4.61049 14.9902L5.17314 12.1395C5.22122 11.8958 5.1456 11.6442 4.97116 11.4674L2.47358 8.93656C2.05501 8.51241 2.27441 7.79306 2.85844 7.6747Z"
        fill="#FF9376" />
</svg>